<?xml version="1.0" encoding="utf-8"?>
<!-- Generator: Adobe Illustrator 24.1.0, SVG Export Plug-In . SVG Version: 6.00 Build 0)  -->
<svg version="1.1" id="Layer_1" xmlns="http://www.w3.org/2000/svg" xmlns:xlink="http://www.w3.org/1999/xlink" x="0px" y="0px"
	 viewBox="0 0 360 78" style="enable-background:new 0 0 360 78;" xml:space="preserve">
<style type="text/css">
	.st0{fill:#FFFFFF;}
	.st1{fill:url(#SVGID_1_);}
	.st2{fill:url(#SVGID_2_);}
	.st3{fill:url(#SVGID_3_);}
</style>
<g>
	<g>
		<path class="st0" d="M30.41,0.83L6.04,54.21c-0.18,0.39-0.73,0.38-0.9-0.01c-2.15-4.9-3.35-10.32-3.35-16.01
			c0-17.89,11.8-33.02,28.04-38.03C30.23,0.03,30.59,0.45,30.41,0.83z"/>
		<path class="st0" d="M81.39,38.19c0,5.7-1.2,11.12-3.35,16.02c-0.17,0.39-0.72,0.4-0.9,0.01L52.88,0.87
			c-0.17-0.38,0.19-0.8,0.59-0.68C69.65,5.25,81.39,20.35,81.39,38.19z"/>
		<path class="st0" d="M57.39,55.7c0-0.01,0.27,0.08,0.27,0.07l0,0h0.11c0.16,0,0.31-0.08,0.4-0.22c0.09-0.14,0.1-0.3,0.02-0.44
			l-2.54-5.45c-0.05-0.1-0.14-0.18-0.24-0.22l-17.55-6.59c-0.32-0.12-0.23-0.59,0.11-0.59h13.56c0.31,0,0.52-0.32,0.39-0.61
			l-0.64-1.37l2.65-4.42c0.53-0.89,0.61-1.99,0.19-2.94l-2.4-5.47c-0.07-0.16-0.21-0.27-0.38-0.28c-0.17-0.02-0.34,0.07-0.43,0.21
			l-4,6.25l3.26-9.42c0.04-0.11,0.04-0.23-0.01-0.34l-2.34-5.33c-0.34-0.77-1.07-1.26-1.91-1.26c-0.84,0-1.58,0.48-1.91,1.26
			l-4,9.17l-4.36,2.14c-0.1,0.05-0.17,0.13-0.22,0.23l-2.9,6.64l-4.34,2.13c-0.1,0.05-0.18,0.13-0.22,0.23l-2.68,6.13
			c-0.08,0.18-0.04,0.38,0.1,0.52c0.14,0.14,0.35,0.17,0.53,0.08l3.34-1.64l-4.79,10.93c-0.06,0.15-0.05,0.31,0.04,0.44
			c0.09,0.13,0.23,0.21,0.39,0.21h0.37c-1.09,6.1-4.42,11.63-5.91,13.87c-0.4,0.61-0.23,1.42,0.38,1.82C26,75.6,33.51,78,41.58,78
			c6.73,0,13.08-1.68,18.65-4.63c0.42-0.23,0.69-0.67,0.69-1.15C60.88,64.97,57.58,56.24,57.39,55.7z M36.75,33.33l-1.51,0.74
			c-0.06,0.02-0.11-0.02-0.09-0.08l1.46-3.35c0.01-0.02,0.02-0.02,0.03-0.03l1.51-0.74c0.05-0.02,0.11,0.03,0.09,0.08l-1.46,3.35
			C36.77,33.31,36.76,33.33,36.75,33.33z"/>
	</g>
	<path class="st0" d="M87.71,49.76l5.35-30.29h-9.64l-6.17,34.98l1.74,3.81h26.4l1.49-8.5H87.71z"/>
	<path class="st0" d="M127.98,19.46h-15.64l-6.84,38.8h9.64l1.74-9.86h5.2c10.6,0,18.23-5.66,19.82-14.73
		C143.43,24.94,138.07,19.46,127.98,19.46z M132.26,33.67c-0.67,3.83-3.84,6.28-8.12,6.28h-5.76l2.11-11.98h5.76
		C130.53,27.97,132.87,30.19,132.26,33.67z"/>
	<path class="st0" d="M169.85,19.46l-2.74,15.58h-15.81l2.76-15.58h-9.64l-2.51,14.21l-4.33,24.59h9.64l2.57-14.55h15.8L163,58.26
		h9.64l0.74-4.23l6.1-34.57L169.85,19.46L169.85,19.46z"/>
	
		<linearGradient id="SVGID_1_" gradientUnits="userSpaceOnUse" x1="209.0423" y1="29.8995" x2="221.5397" y2="29.8995" gradientTransform="matrix(1 0 0 -1 0 80)">
		<stop  offset="0" style="stop-color:#E6293D"/>
		<stop  offset="1" style="stop-color:#942A1E"/>
	</linearGradient>
	<path class="st1" d="M212.02,54.41l-1.09-4.48c-0.05-0.17-0.09-0.33-0.12-0.51l-0.99-4.05h-0.59c-0.32,3.88,0.67,6.87,2.53,9.04
		c0.12,0.14,0.25,0.28,0.38,0.42L212.02,54.41z"/>
	
		<linearGradient id="SVGID_2_" gradientUnits="userSpaceOnUse" x1="209.8093" y1="41.1631" x2="350.2397" y2="41.1631" gradientTransform="matrix(1 0 0 -1 0 80)">
		<stop  offset="0" style="stop-color:#E6293D"/>
		<stop  offset="1" style="stop-color:#942A1E"/>
	</linearGradient>
	<path class="st2" d="M319.37,38.87c-1.13,6.45,2.43,11.18,8.76,11.18c5.12,0,9.09-3.02,11.02-7.87h9.87
		c-2.96,10.03-11.8,16.9-22.42,16.9c-8.95,0-15.37-4.97-16.94-12.55l-2.08,11.75h-7.47l-14.84-21.27l-3.75,21.27h-9.64l6.13-34.81
		l0.02-0.13l-0.09,0.13l-17.13,23.12l-2.06,11.69h-9.7l2.06-11.69l-5.93-15.17v0.1h-9.7c0-2.9-1.47-4.91-5.41-4.91
		c-3.32,0-5.78,1.37-6.22,3.88c-0.38,2.12,1,3.04,3.8,3.65l5.22,1.26c6.79,1.54,10.91,4.39,9.73,11.07
		c-1.37,7.77-8.61,12.62-18.3,12.62c-4.97,0-9.43-1.33-12.2-4.25l-0.1-0.42l-1.09-4.48l-0.12-0.51l-0.99-4.05h9.04
		c0.04,3.43,2.62,5.49,7.19,5.49c3.59,0,5.71-1.33,6.09-3.44c0.21-1.31-0.33-2.69-3.52-3.3l-6.15-1.43
		c-7.35-1.66-10.31-5.25-9.23-11.43c1.37-7.74,8.51-12.67,17.64-12.67c3.4,0,7.58,0.73,10.55,3.05l-0.85-2.19h10.67l6.49,16.9
		l12.51-16.9h15.86l14.84,21.86l3.85-21.86h9.65l-2.09,11.76c4.27-7.58,12.42-12.55,21.36-12.55c10.61,0,17.07,6.84,16.49,16.88
		h-9.88c-0.23-4.84-3.1-7.87-8.25-7.87C325.73,27.69,320.52,32.42,319.37,38.87z"/>
	
		<linearGradient id="SVGID_3_" gradientUnits="userSpaceOnUse" x1="1.7567" y1="25.7014" x2="357.8037" y2="25.7014" gradientTransform="matrix(1 0 0 -1 0 80)">
		<stop  offset="0" style="stop-color:#E6293D"/>
		<stop  offset="1" style="stop-color:#942A1E"/>
	</linearGradient>
	<path class="st3" d="M353.82,49.31c-2.85,0-5.57,2.17-6.06,4.97c-0.51,2.85,1.45,5.02,4.31,5.02c2.85,0,5.57-2.17,6.08-5.02
		C358.64,51.47,356.68,49.31,353.82,49.31z"/>
	<path class="st0" d="M212.12,54.83l-0.1-0.42l-1.09-4.48l-0.12-0.51l-0.99-4.05v0l-6.39-26.14h-9.19l-20.84,34.81l-2.52,4.22h10.27
		l3.75-6.66h16.43l1.45,6.66h10.2L212.12,54.83z M189.51,43.37l7.3-12.89l2.76,12.89H189.51z"/>
</g>
</svg>
